<svg width="1305" height="205" id="b7ca97d2-7949-4441-aa0a-606ca2e9ca4c" data-name="Layer 1" xmlns="http://www.w3.org/2000/svg" viewBox="0 0 1305 205">
  <path d="M505.31,112.4l-17.4-1.6c-11.4-1-16-5-16-12,0-8.2,7-13.6,20.6-13.6,12.8,0,19.2,5.6,20.2,14.6h40.8c-2.6-26.6-21.4-45.4-59.8-45.4-40,0-62,20.4-62,47.4,0,25.2,13.8,39,48,41.8l17.2,1.4c13.4,1,18.2,5.6,18.2,13.6,0,8.4-7,14.6-21.4,14.6-13.4,0-21.4-6-22.8-16.6h-43c3.8,29,24.2,48.2,65.6,48.2,40.2,0,62.4-20.6,62.4-48.4C555.91,129.4,541.11,115.6,505.31,112.4Z" style="fill: #003d29"/>
  <path d="M364.51,54.4c-25.6,0-40.8,13.4-48,40.8h-2.6V56.8h-40.4V202.4h43V117.6c0-19.4,10-30,28-30,17.8,0,26.6,11,26.6,29.8v85h43V109.8C414.11,74.6,395.71,54.4,364.51,54.4Z" style="fill: #003d29"/>
  <path d="M231.71,0c-14.6,0-25.6,9.6-25.6,24.2s10.8,24.2,25.4,24.2,25.4-9.6,25.4-24.2C256.91,9.8,246.11,0,231.71,0Z" style="fill: #003d29"/>
  <path d="M253.11,56.8h-43V202.4h43Z" style="fill: #003d29"/>
  <path d="M623.51,26h-27.4c-.8,23.4-10.8,33.6-33.2,35.4V91h17.6v64c0,32.2,18.4,49.8,55,49.8a81.16,81.16,0,0,0,20.4-2.6V167.6a59.44,59.44,0,0,1-10.4.8c-15.4,0-22-5.8-22-22V91h37.8V56.8h-37.8Z" style="fill: #003d29"/>
  <path d="M1305.51,91V56.8h-37.8V26h-27c-.6,16.2-5.4,25.6-16,30.8V155c0,32.2,18.4,49.8,55,49.8a81.16,81.16,0,0,0,20.4-2.6V167.6a59.44,59.44,0,0,1-10.4.8c-15.4,0-22-5.8-22-22V91Z" style="fill: #003d29"/>
  <path d="M1164.71,97.4h-2.6V56.8h-39.8V202.4h43V123.6c0-21.8,9.8-31,32.2-31a80,80,0,0,1,13.8,1.4V56.4a35.49,35.49,0,0,0-12.2-2C1181.71,54.4,1169.71,64.4,1164.71,97.4Z" style="fill: #003d29"/>
  <path d="M890.11,168c-20.2,0-34.8-13.4-34.8-39.4,0-23.2,13.6-37.6,34.4-37.6,17.8,0,28,10,31,26h43.6c-4.2-37.4-31-62.6-74-62.6-47.2,0-78.2,32-78.2,75.8,0,45.4,29.8,74.6,77.6,74.6,43.4,0,71.6-24.2,75.6-63.4h-43.6C919.31,157.4,908.31,168,890.11,168Z" style="fill: #003d29"/>
  <path d="M735.91,54.4c-37.4,0-60,18.4-64,51.4h41.2c1.4-11.4,8.8-17.4,21.8-17.4,13.2,0,19.2,6,19.2,14.6,0,7.2-4.6,11-16.4,13.2l-19.6,3.6c-34.6,6.4-47.8,20.6-47.8,43.2,0,25.8,18.2,42,43.4,42,20.6,0,34-9.6,40.2-33.6h2.6v31h40.6v-95C797.11,74.4,777.31,54.4,735.91,54.4Zm-4.8,121.2c-11.6,0-18.2-6.2-18.2-15.4,0-7.6,4.6-12.8,16-15.4l8-1.8c6.9-1.6,12.26-3.73,17.2-8V150.4C754.11,168.2,744.71,175.6,731.11,175.6Z" style="fill: #003d29"/>
  <path d="M1041.51,54.4c-37.4,0-60,18.4-64,51.4h41.2c1.4-11.4,8.8-17.4,21.8-17.4,13.2,0,19.2,6,19.2,14.6,0,7.2-4.6,11-16.4,13.2l-19.6,3.6c-34.6,6.4-47.8,20.6-47.8,43.2,0,25.8,18.2,42,43.4,42,20.6,0,34-9.6,40.2-33.6h2.6v31h40.6v-95C1102.71,74.4,1082.91,54.4,1041.51,54.4Zm-4.8,121.2c-11.6,0-18.2-6.2-18.2-15.4,0-7.6,4.6-12.8,16-15.4l8-1.8c6.9-1.6,12.25-3.73,17.2-8V150.4C1059.71,168.2,1050.31,175.6,1036.71,175.6Z" style="fill: #003d29"/>
  <path d="M137.73,34.84c-8.85,0-15.15,3.85-21,12.21L100,71.14V2.4H60V71.14L43.24,47.05c-5.82-8.36-12.12-12.21-21-12.21C8.93,34.84,0,44.69,0,56.83,0,67.23,4.87,74,15.2,80.65L80,122.4l64.8-41.75C155.13,74,160,67.22,160,56.83,160,44.69,151.07,34.84,137.73,34.84Z" style="fill: #0aad0a"/>
  <path d="M80,132.4c38.52,0,70.09,28.75,70,70H10C9.92,161.17,41.48,132.4,80,132.4Z" style="fill: #ff7009"/>
</svg>
